<svg
            version="1.1"
            viewBox="0.0 0.0 566.9291338582677 566.9291338582677"
            fill="none"
            
            stroke="none"
            stroke-linecap="square"
            stroke-miterlimit="10"
            xmlnsXlink="http://www.w3.org/1999/xlink"
            xmlns="http://www.w3.org/2000/svg"
          >
            <clipPath id="p.0">
              <path
                d="m0 0l566.92914 0l0 566.92914l-566.92914 0l0 -566.92914z"
                clip-rule="nonzero"
              />
            </clipPath>
            <g clip-path="url(#p.0)">
              <path
                fill="#000000"
                fill-opacity="0.0"
                d="m0 0l566.92914 0l0 566.92914l-566.92914 0z"
                fill-rule="evenodd"
              />
              <path
                fill="#000000"
                d="m283.46457 566.92914l0 0c-156.55316 0 -283.46457 -126.91141 -283.46457 -283.46457l0 0c0 -75.179474 29.864931 -147.2798 83.02485 -200.43973c53.15992 -53.15992 125.26025 -83.02485 200.43973 -83.02485l0 0c156.55316 0 283.46457 126.91141 283.46457 283.46457l0 0c0 156.55316 -126.91141 283.46457 -283.46457 283.46457z"
                fill-rule="evenodd"
              />
              <path
                fill="#ff0066"
                d="m185.33075 441.39896l0 -237.76378l249.32281 0l0 237.76378z"
                fill-rule="evenodd"
              />
              <path
                fill="#00ff88"
                d="m132.28346 441.39896l0 -237.76378l151.1811 0l0 237.76378z"
                fill-rule="evenodd"
              />
              <path
                fill="#000000"
                d="m124.28346 446.4015l0 -170.07877l170.07875 170.07877z"
                fill-rule="evenodd"
              />
              <path
                fill="#000000"
                d="m442.64566 446.4015l0 -170.07877l-170.07874 170.07877z"
                fill-rule="evenodd"
              />
              <path
                fill="#000000"
                d="m283.46332 260.32272l80.188965 -80.188965l-160.37796 0z"
                fill-rule="evenodd"
              />
            </g>
          </svg>